<svg xmlns="http://www.w3.org/2000/svg" data-name="Layer 1" width="1114" height="593.5414428710938" style=""><rect id="backgroundrect" width="100%" height="100%" x="0" y="0" fill="none" stroke="none"/><title>Vehicle sale</title><g class="currentLayer" style=""><title>Layer 1</title><g opacity="0.8" id="svg_2" class="selected"><path d="M404.792,35.38141143554688 c9.4427,13.24168 16.687,51.80564 18.70621,63.42625 l16.87916,-0.3443500000000001 c-0.8734700000000001,-9.98352 -20.50928,-50.59144 -25.96792,-61.73352 C411.372,36.25358143554686 408.12986,35.788481435546885 404.792,35.38141143554688 z" fill="#65617d" id="svg_3"/><rect x="243.4285430908203" y="450.92242431640625" width="10.533550262451172" height="7.477670192718506" transform="rotate(-88.91800689697266 7.925179958343496,269.32977294921875) " fill="#dce0ed" id="svg_4"/><path d="M194.13142,26.765771435546867 l-0.06476000000000003,3.42915 a5.71053,5.71053 0 0 0 1.6207200000000002,0.25 l5.85242,0.060650000000000016 l0.06800000000000002,-3.5986000000000002 z" opacity="0.1" id="svg_5"/><path d="M205.2712,0.134841435546889 l-7.059,-0.13332 a8.47282,8.47282 0 0 0 -7.9484,5.13905 c-2.16363,5.0498 -4.06611,13.10879 0.38065000000000004,21.26595 a5.83528,5.83528 0 0 0 5.06083,3.04224 l9.01053,0.09300000000000003 z" fill="#dce0ed" id="svg_6"/><ellipse cx="280.2664794921875" cy="427.6815490722656" rx="14.706089973449707" ry="7.560760021209717" transform="rotate(-88.91800689697266 32.272968292236335,259.61395263671875) " fill="#f0f0f4" id="svg_7"/><rect x="374.9560852050781" y="518.768798828125" width="9.22245979309082" height="7.477670192718506" transform="rotate(-88.91800689697266 72.37232208251956,336.45263671875) " fill="#dce0ed" id="svg_8"/><path d="M260.5439,28.14472143554687 l-0.055360000000000006,2.93072 a5.71024,5.71024 0 0 0 1.6207200000000002,0.25 l5.85242,0.060650000000000016 l0.05856000000000001,-3.10017 z" opacity="0.1" id="svg_9"/><path d="M271.68367,1.5137914355468638 l-7.059,-0.13332 a8.47283,8.47283 0 0 0 -7.9484,5.13906 c-2.16363,5.04979 -4.06611,13.10879 0.38065000000000004,21.26594 a5.83528,5.83528 0 0 0 5.06083,3.04224 l9.01053,0.09300000000000003 z" fill="#dce0ed" id="svg_10"/><ellipse cx="314.4059753417969" cy="169.446533203125" rx="14.706089973449707" ry="7.560760021209717" transform="matrix(0.01888,-0.99982,0.99982,0.01888,96.05265,327.36749) " fill="#f0f0f4" id="svg_11"/><path d="M269.69581,6.852721435546869 s2.7800000000000002,0.4988200000000001 1.26052,4.15221 a25.43232,25.43232 0 0 0 -1.77841,5.54533 s-2.81585,1.39734 -2.6137300000000003,-3.39672 S269.69581,6.852721435546869 269.69581,6.852721435546869 z" fill="#dce0ed" id="svg_12"/><ellipse cx="754.4569091796875" cy="1182.7169189453125" rx="48.355621337890625" ry="44.11827087402344" transform="rotate(-88.91800689697266 162.40031433105463,807.173583984375) " fill="#636780" id="svg_13"/><path d="M533.38435,176.67072143554685 c23.05422,1.98855 40.9417,23.34113 40.45648,49.03256 c-0.3911200000000001,20.70876 -12.60527,38.14911 -29.43239,44.721000000000004 C521.3542,268.4357214355469 503.46677999999997,247.08313143554687 503.952,221.39172143554686 C504.34312,200.68297143554685 516.55724,183.24261143554685 533.38435,176.67072143554685 z" opacity="0.1" id="svg_14"/><ellipse cx="186.61424255371094" cy="617.279296875" rx="46.69392013549805" ry="35.809749603271484" transform="rotate(-88.91800689697266 -62.197219848632734,353.9220581054688) " fill="#636780" id="svg_15"/><path d="M216.66307999999998,65.58693143554689 c14.741530000000001,5.97106 25.24563,24.07518 24.84516,45.27929 c-0.42800000000000005,22.65958 -13.1659,41.31223 -29.668,45.24689 c-14.741530000000001,-5.97106 -25.24563,-24.07515 -24.84516,-45.27926 C187.42308,88.17424143554686 200.161,69.52159143554687 216.66307999999998,65.58693143554689 z" opacity="0.1" id="svg_16"/><path d="M340.49079,102.69962143554687 L340.14628,85.74072143554687 s3.46089,-7.24745 6.79625,-7.84925 s10.9857,-0.8728200000000002 10.9857,-0.8728200000000002 s5.52138,24.4526 1.3959300000000001,31.68749 S340.49079,102.69962143554687 340.49079,102.69962143554687 z" fill="#65617d" id="svg_17"/><path d="M340.49079,102.69962143554687 L340.14628,85.74072143554687 s3.46089,-7.24745 6.79625,-7.84925 s10.9857,-0.8728200000000002 10.9857,-0.8728200000000002 s5.52138,24.4526 1.3959300000000001,31.68749 S340.49079,102.69962143554687 340.49079,102.69962143554687 z" opacity="0.1" id="svg_18"/><path d="M401.8313,102.02993143554687 s2.50368,-23.45907 -10.404,-24.12579 c-1.6608300000000003,-0.08579000000000003 -3.32174,-0.15712 -4.97373,-0.3486200000000001 c-8.93451,-1.0357 -33.30816,-3.38007 -30.48934,2.25142 c0,0 5.429,20.54515 1.3443200000000002,25.62021 z" fill="#65617d" id="svg_19"/><path d="M218.00420000000003,142.14406143554686 l-17.3296,0.1713 s-2.38808,-31.95553 -3.33785,-34.46647 s-1.22228,-14.4825 2.05041,-16.16579 s14.1534,-3.59685 14.1534,-3.59685 l7.63117,18.343 l0.3123800000000001,16.45971 z" fill="#65617d" id="svg_20"/><path d="M218.00420000000003,142.14406143554686 l-17.3296,0.1713 s-2.38808,-31.95553 -3.33785,-34.46647 s-1.22228,-14.4825 2.05041,-16.16579 s14.1534,-3.59685 14.1534,-3.59685 l7.63117,18.343 l0.3123800000000001,16.45971 z" opacity="0.1" id="svg_21"/><path d="M260.87189,89.97738143554687 l0.14432,-3.551 a2.04961,2.04961 0 0 0 -2.096,-2.13228 c-8.59156,0.20016 -39.85607,1.1064 -45.3796,3.7921300000000002 c0,0 5.14092,44.59719 -1.6632200000000001,55.06394 l1.5698400000000001,35.67959 l76.61614,-4.28689 z" fill="#65617d" id="svg_22"/><path d="M267.914,33.91311143554688 c-2.11933,-0.24943000000000004 -4.642,-0.52644 -7.46392,-0.79912 l-0.08029000000000003,4.25156 l7.47634,0.14120000000000002 z" opacity="0.1" id="svg_23"/><path d="M193.94268,36.759141435546866 l-0.01016,0.53831 l7.47634,0.14120000000000002 l0.06109000000000001,-3.23476 A31.93775,31.93775 0 0 0 193.94268,36.759141435546866 z" opacity="0.1" id="svg_24"/><polygon points="154.434 142.065 165.73 142.443 189.878 100.458 193.909 93.449 191.257 75.45 188.878 79.753 154.434 142.065" fill="#dce0ed" id="svg_25"/><polygon points="257.596 91.825 262.115 98.891 276.376 80.353 282.903 71.86 279.178 66.64 276.185 70.133 257.596 91.825" fill="#dce0ed" id="svg_26"/><path d="M276.18476,70.13310143554688 c-0.026730000000000004,0.35847000000000007 -0.053620000000000015,0.7269200000000001 -0.08560000000000002,1.10027 l0.27648000000000006,9.11965 l6.52754,-8.49255 l-3.72566,-5.22088 z" opacity="0.1" id="svg_27"/><polygon points="188.878 79.753 189.878 100.458 193.909 93.449 191.257 75.45 188.878 79.753" opacity="0.1" id="svg_28"/><path d="M289.163,83.61440143554688 s6.36492,-41.5649 -13.82513,-48.17882 a4.59123,4.59123 0 0 0 -0.7949200000000001,-0.17933000000000002 c-4.66286,-0.6524800000000001 -48.13714,-6.49859 -70.87266,-0.9560000000000001 c0,0 -15.495,2.03415 -15.48578,10.34433 l4.89456,101.64074 l11.13144,0.21024000000000004 l-2.38742,-67.19 s-4.7642500000000005,-29.34121 4.07888,-31.168590000000002 s48.94583,-4.394 62.9925,-0.13989000000000001 c0,0 10.34466,-2.13143 8.20317,23.25675 l0.40726,13.63611 z" fill="#dce0ed" id="svg_29"/><path d="M255.03647999999998,95.35178143554688 a6.42651,6.42651 0 0 1 2.725,-5.68244 c3.15986,-2.30868 12.851,-7.2363 12.851,-7.2363 l3.11043,0.30805000000000005 l8.9077,23.35315 L281.078,155.30172143554688 l-17.21478,20.49144 z" fill="#65617d" id="svg_30"/><path d="M255.03647999999998,95.35178143554688 a6.42651,6.42651 0 0 1 2.725,-5.68244 c3.15986,-2.30868 12.851,-7.2363 12.851,-7.2363 l3.11043,0.30805000000000005 l8.9077,23.35315 L281.078,155.30172143554688 l-17.21478,20.49144 z" opacity="0.1" id="svg_31"/><path d="M321.18311,148.2062114355469 l0.6216200000000002,-50.51311 s1.8655300000000001,-19.57639 -9.84113,-20.12988 c0,0 -27.62919,-0.32060000000000005 -39.70039,3.34911 a2.6812,2.6812 0 0 0 -1.58495,3.84343 c2.3108400000000002,4.20466 6.13231,15.28988 7.5436700000000005,43.56759 l-0.5718700000000001,30.27918 z" fill="#65617d" id="svg_32"/><polygon points="262.3 179.378 312.583 179.156 312.633 179.157 337.345 179.051 335.103 145.976 321.387 146.216 277.591 155.111 263.863 175.793 262.3 179.378" fill="#65617d" id="svg_33"/><polygon points="262.3 179.378 312.583 179.156 312.633 179.157 337.345 179.051 335.103 145.976 321.387 146.216 277.591 155.111 263.863 175.793 262.3 179.378" opacity="0.1" id="svg_34"/><polygon points="262.3 179.378 312.583 179.156 313.828 157.042 277.591 155.111 263.863 175.793 262.3 179.378" fill="#65617d" id="svg_35"/><path d="M312.63257,179.15737143554685 l24.71265,-0.10663000000000002 l-2.24228,-33.07464 s-7.95854,12.19006 -21.27487,11.066 z" fill="#fff" opacity="0.1" id="svg_36"/><path d="M134.844,202.5245614355469 c0.8180000000000001,9.48886 7.57493,8.12067 7.57493,8.12067 l1.2582,-0.09093000000000002 l12.472,-0.8962500000000001 l-0.22072000000000003,-14.71289 a54.10713,54.10713 0 0 0 -12.64439,0.519 C138.59561,196.3429414355469 134.47989,198.30949143554687 134.844,202.5245614355469 z" fill="#dce0ed" id="svg_37"/><path d="M134.844,202.5245614355469 c0.8180000000000001,9.48886 7.57493,8.12067 7.57493,8.12067 l1.2582,-0.09093000000000002 a12.72462,12.72462 0 0 0 2.11805,-7.075 a11.966940000000001,11.966940000000001 0 0 0 -2.5112,-8.01508 C138.59561,196.3429414355469 134.47989,198.30949143554687 134.844,202.5245614355469 z" opacity="0.1" id="svg_38"/><path d="M308.61824,109.49355143554686 c-0.29027000000000003,15.3693 8.698,28.0028 20.07588,28.21769 s20.8368,-12.0702 21.12708,-27.4395 s-8.698,-28.0028 -20.07591,-28.21769 S308.90852,94.12425143554688 308.61824,109.49355143554686 zm7.77412,1.975 c0.21056000000000002,-11.14849 7.41051,-20.05336 16.08156,-19.88959 s15.529630000000001,9.33415 15.31907,20.48264 s-7.41052,20.05336 -16.08156,19.8896 S316.1818,122.61706143554687 316.39236,111.4685914355469 z" fill="#636780" id="svg_39"/><polygon points="328.061 118.42 318.246 127.708 314.917 119.169 329.027 111.292 328.061 118.42" fill="#636780" id="svg_40"/><polygon points="315.626 24.424 307.217 25.287 304.035 28.926 308.353 50.248 317.733 84.646 323.868 108.256 328.227 122.605 330.819 141.535 333.523 154.566 342.203 163.58 360.593 142.687 363.676 135.665 371.027 121.349 352.904 112.451 332.884 110.303 323.904 85.943 316.766 57.782 315.626 24.424" fill="#6c63ff" id="svg_41"/><polyline points="483.428 128.833 492.655 221.083 354.702 212.66 371.505 167.771 398.414 150.994 337.587 150.843 337.732 125.583 362.421 120.731 412.006 117.679 449.253 116.72 484.588 129.022" fill="#65617d" id="svg_42"/><polyline points="483.428 128.833 492.655 221.083 354.702 212.66 371.505 167.771 398.414 150.994 337.587 150.843 337.732 125.583 362.421 120.731 412.006 117.679 449.253 116.72 484.588 129.022" opacity="0.1" id="svg_43"/><path d="M293.07335,217.0009214355469 c-0.43200000000000005,22.87216 6.77363,43.83688 27.90348,41.95549 c26.60673,-0.06761000000000002 29.03584,-17.99978 29.46781,-40.872 s-12.08954,-40.1365 -27.93218,-40.43572 S293.50533,194.12872143554688 293.07335,217.0009214355469 z" fill="#636780" id="svg_44"/><path d="M292.90667,217.0366314355469 c0.33444000000000007,-17.70793 8.30172,-31.76108 19.23415,-37.06671 c13.85524,2.90687 24.24395,19.10356 23.84984,39.97084 c-0.35400000000000004,18.74393 -2.053,34.16736 -17.29707,39.16256 C299.19821,259.4356614355469 292.48946,239.12701143554688 292.90667,217.0366314355469 z" opacity="0.1" id="svg_45"/><polygon points="266.655 180.592 274.589 190.034 260.039 187.252 249.317 177.019 239.953 157.372 226.398 148.708 192.693 152.644 161.558 153.236 150.265 142.818 163.111 141.317 176.092 141.268 208.693 141.146 247.492 140.846 255.054 162.23 260.824 176.941 266.655 180.592" fill="#6c63ff" id="svg_46"/><path d="M154.36226,216.35540143554687 c0.6441200000000001,1.00937 22.34744,4.74493 22.34744,4.74493 l59.9326,12.10113 L339.957,236.64852143554685 l12.32121,-10.07336 l6.34849,1.25171 l0.25831000000000004,0.049760000000000006 L443.68045,244.59072143554687 l1.3894000000000002,-0.17321000000000003 l23.254,-2.86651 l121.45278,-14.9777 l-1.02362,-17.61 l-0.60646,-10.39232 l-1.25281,-21.57815 l-1.05955,-5.6741600000000005 L575.067,170.12812143554686 l-5.03029,-0.5587000000000001 l-78.48,-8.697000000000001 L481.297,159.7363314355469 l-5.75179,-0.6371400000000002 l-56.013,-8.70145 l-81.94346,0.44677000000000006 l0.14300000000000002,-25.26138 L307.217,25.286721435546866 c-7.16434,1.02641 -7.09088,5.84928 -7.09088,5.84928 L325.931,125.52478143554686 l-0.7549200000000001,57.65888 c-57.46788,4.70836 -59.081,-7.822 -68.23685,-3.78177 L246.63600000000002,144.14072143554688 l-96.36952,-1.32149 C146.35581,147.39732143554687 154.36226,216.35540143554687 154.36226,216.35540143554687 z" fill="#65617d" id="svg_47"/><polygon points="394.426 168.536 362.616 233.585 352.251 236.711 349.962 226.033 362.113 189.864 374.307 168.987 394.426 168.536" fill="#65617d" id="svg_48"/><polygon points="394.426 168.536 362.616 233.585 352.251 236.711 349.962 226.033 362.113 189.864 374.307 168.987 394.426 168.536" opacity="0.15" id="svg_49"/><ellipse cx="455.95794677734375" cy="394.4126892089844" rx="62.812461853027344" ry="55.374610900878906" transform="matrix(0.01888,-0.99982,0.99982,0.01888,10.00564,689.61229) " fill="#636780" id="svg_50"/><path d="M394.32147,181.92672143554688 c28.935,2.56395 51.36889,30.28516 50.7386,63.65753 c-0.508,26.9 -15.85314,49.56436 -36.97923,58.11485 c-28.935,-2.564 -51.36884,-30.2852 -50.738550000000004,-63.65754 C357.85034,213.1415014355469 373.19539,190.47718143554687 394.32147,181.92672143554688 z" opacity="0.1" id="svg_51"/><path d="M563.43566,134.1687714355469 l2.49733,12.97088 l7.64093,39.73819 l36.12178,-2.808 s2.2836600000000002,-6.60322 -3.3164100000000003,-9.202 c0,0 -1.42929,-22.52883 -7.95943,-29.73729 a6.78036,6.78036 0 0 0 -2.5822700000000003,-1.8736400000000002 z" fill="#65617d" id="svg_52"/><path d="M565.933,147.13965143554685 l7.64093,39.73819 l36.12178,-2.808 s2.2836600000000002,-6.60322 -3.3164100000000003,-9.202 c0,0 -1.42929,-22.52883 -7.95943,-29.73729 z" fill="#fff" opacity="0.1" id="svg_53"/><path d="M482.12687000000005,136.12332143554687 c-4.79771,7.71746 5.13782,79.87312 5.13782,79.87312 l88.83094,-12.95124 l-1.96581,-63.02531 c-1.6158000000000001,-11.33381 -8.23475,-12.78508 -8.23475,-12.78508 c-30.938,-16.375 -102.64809,-21.055 -102.64809,-21.055 c-65.50493,1.25584 -125.51519,19.40335 -125.51519,19.40335 C412.37777,115.52513143554688 482.12687000000005,136.12332143554687 482.12687000000005,136.12332143554687 z" fill="#65617d" id="svg_54"/><path d="M487.26469,215.9964414355469 l88.83094,-12.95124 l-1.96581,-63.02531 c-1.6158000000000001,-11.33381 -8.23475,-12.78508 -8.23475,-12.78508 s-64.51429,-7.3712 -83.7682,8.88851 C477.32916,143.8407814355469 487.26469,215.9964414355469 487.26469,215.9964414355469 z" opacity="0.1" id="svg_55"/><path d="M496.70459000000005,212.01807143554686 l74.27861,-11.07848 L569.35982,147.16772143554687 c-1.3473700000000002,-9.66936 -6.88121,-10.90544 -6.88121,-10.90544 s-53.94013,-6.26823 -70.04418,7.61058 C488.42042000000004,150.45886143554685 496.70459000000005,212.01807143554686 496.70459000000005,212.01807143554686 z" fill="#65617d" id="svg_56"/><ellipse cx="718.827392578125" cy="1029.5770263671875" rx="18.444929122924805" ry="10.13640022277832" transform="rotate(-88.91800689697266 172.19679260253906,708.4080810546875) " opacity="0.1" id="svg_57"/><ellipse cx="719.3443603515625" cy="1028.5989990234375" rx="18.444929122924805" ry="10.13640022277832" transform="rotate(-88.91800689697266 172.70437622070312,707.928466796875) " fill="#dce0ed" id="svg_58"/><path d="M502.56818,153.7925514355469 s4.141,0.7430000000000001 1.87759,6.18487 a37.88258,37.88258 0 0 0 -2.649,8.26 s-4.19431,2.0813800000000002 -3.89325,-5.05954 S502.56818,153.7925514355469 502.56818,153.7925514355469 z" fill="#f0f0f4" id="svg_59"/><ellipse cx="833.01416015625" cy="1071.583740234375" rx="17.235429763793945" ry="9.471719741821289" transform="rotate(-88.91800689697266 231.91744995117188,756.6990356445312) " opacity="0.1" id="svg_60"/><ellipse cx="833.5311279296875" cy="1070.605712890625" rx="17.235429763793945" ry="9.471719741821289" transform="rotate(-88.91800689697266 232.4250183105469,756.2194213867188) " fill="#dce0ed" id="svg_61"/><path d="M557.03431,147.50843143554687 s4.141,0.7430000000000001 1.87759,6.1848600000000005 a37.88206,37.88206 0 0 0 -2.649,8.26 s-4.19431,2.08139 -3.89325,-5.05954 S557.03431,147.50843143554687 557.03431,147.50843143554687 z" fill="#f0f0f4" id="svg_62"/><path d="M515.55709,152.54038143554686 c0.53423,6.8260000000000005 2.90483,57.39392 2.90483,57.39392 l5.65495,-0.83553 l3.14489,-0.45916 l4.19,-0.6188900000000002 l0.505,-0.07525000000000001 l16.50472,-2.43058 l-2.23784,-53.63683 a6.71636,6.71636 0 0 0 -6.66448,-6.43315 c-0.16455000000000003,0.0018800000000000004 -0.3341200000000001,0.0036400000000000013 -0.50385,0.015410000000000002 c-1.1383,0.07823000000000002 -2.36669,0.17469 -3.64529,0.29013 c-0.5394,0.04964000000000001 -1.08383,0.09922000000000004 -1.6383800000000002,0.15853000000000003 c-1.58357,0.15956000000000004 -3.21776,0.35806000000000004 -4.82269,0.5920000000000001 c-0.82006,0.12414000000000001 -1.6252400000000002,0.25351 -2.42064,0.3930600000000001 c-1.3458400000000001,0.24384000000000003 -2.64731,0.51342 -3.84981,0.8247900000000001 c-0.8166700000000001,0.20892000000000002 -1.59383,0.43856000000000006 -2.3066,0.6893700000000001 C517.38093,149.42866143554687 515.41588,150.77772143554688 515.55709,152.54038143554686 z" opacity="0.1" id="svg_63"/><path d="M539.5591,145.44491143554689 l2.08258,60.27526 l1.83231,-0.12994000000000003 l-2.06027,-59.871 A6.74685,6.74685 0 0 0 539.5591,145.44491143554689 z" fill="#65617d" id="svg_64"/><path d="M533.77158,145.90898143554688 l1.8670900000000001,60.85953 l2.82605,0.053370000000000015 L535.41,145.7504514355469 C534.87056,145.80009143554685 534.32613,145.84972143554688 533.77158,145.90898143554688 z" fill="#65617d" id="svg_65"/><path d="M526.52825,146.89403143554688 l3.60264,61.10174 l1.8292000000000002,0.03455000000000001 l-0.003390000000000001,-0.08485000000000001 l-3.00781,-61.4445 C528.12883,146.6251114355469 527.32365,146.7544814355469 526.52825,146.89403143554688 z" fill="#65617d" id="svg_66"/><path d="M520.37184,148.40819143554688 l3.745,60.69058 l0.007810000000000002,0.11482000000000002 l3.16133,-0.27435000000000004 l-0.024250000000000004,-0.29963 l-4.5833200000000005,-60.92079 C521.86177,147.92772143554686 521.08461,148.15738143554688 520.37184,148.40819143554688 z" fill="#65617d" id="svg_67"/><path d="M587.06181,196.60599143554685 s6.70108,-31.40992 -7.22416,-33.29337 s-59.84367,0.6148600000000001 -58.71776,13.599730000000001 s2.24935,32.70082 2.24935,32.70082 l9.51,-1.93944 s-6.54242,-29.79029 4.56867,-30.7023 s38.334,-3.5141 38.334,-3.5141 s7.37527,-1.10721 2.64682,24.85536 z" opacity="0.1" id="svg_68"/><path d="M587.00533,199.59653143554686 s6.73873,-33.40362 -7.18651,-35.28707 s-59.84367,0.6148600000000001 -58.71776,13.59974 s2.24935,32.70081 2.24935,32.70081 l9.51,-1.93944 s-6.54242,-29.79029 4.56866,-30.70229 s38.334,-3.51411 38.334,-3.51411 s7.33761,0.8864900000000001 2.60917,26.84906 z" fill="#dce0ed" id="svg_69"/><path d="M339.957,236.64852143554685 l12.29432,0.06266000000000002 c9.71838,-39.370400000000004 24.97094,-63.67831 24.97094,-63.67831 c5.0345,-2.56745 59.52075,-1.20431 59.52075,-1.20431 c5.63327,1.10359 6.78965,19.075 6.78965,19.075 s-4.89815,4.06081 -0.29813,6.81023 c2.056,1.2255 8.89012,1.57895 16.77784,1.32406 c9.79361,-0.32361000000000006 21.21563,-1.5937100000000002 27.13673,-3.32172 c10.69912,-3.12362 2.342,-9.42918 2.342,-9.42918 s-1.45762,-2.0219300000000002 -2.24736,-13.00605 a44.33217,44.33217 0 0 0 -5.724,-18.21229 c-0.44413,-0.77126 -0.72541,-1.19042 -0.72541,-1.19042 a5.74958,5.74958 0 0 0 -1.9209,-1.25284 c-13.97432,-6.1474400000000005 -83.11666,-1.8490000000000002 -83.11666,-1.8490000000000002 l-25.73786,7.6610000000000005 c-0.7131200000000001,0.27074 -1.83874,2.05441 -3.2389,4.90989 C358.3681,180.53472143554689 339.957,236.64852143554685 339.957,236.64852143554685 z" fill="#65617d" id="svg_70"/><path d="M339.957,236.64852143554685 l12.29432,0.06266000000000002 c9.71838,-39.370400000000004 24.97094,-63.67831 24.97094,-63.67831 c5.0345,-2.56745 59.52075,-1.20431 59.52075,-1.20431 c5.63327,1.10359 6.78965,19.075 6.78965,19.075 s-4.89815,4.06081 -0.29813,6.81023 c2.056,1.2255 8.89012,1.57895 16.77784,1.32406 c9.79361,-0.32361000000000006 21.21563,-1.5937100000000002 27.13673,-3.32172 c10.69912,-3.12362 2.342,-9.42918 2.342,-9.42918 s-1.45762,-2.0219300000000002 -2.24736,-13.00605 a44.33217,44.33217 0 0 0 -5.724,-18.21229 c-0.44413,-0.77126 -0.72541,-1.19042 -0.72541,-1.19042 a5.74958,5.74958 0 0 0 -1.9209,-1.25284 c-13.97432,-6.1474400000000005 -83.11666,-1.8490000000000002 -83.11666,-1.8490000000000002 l-25.73786,7.6610000000000005 c-0.7131200000000001,0.27074 -1.83874,2.05441 -3.2389,4.90989 C358.3681,180.53472143554689 339.957,236.64852143554685 339.957,236.64852143554685 z" opacity="0.1" id="svg_71"/><path d="M366.78,163.34730143554685 c23.79356,-8.72987 88.7906,-2.6310000000000002 88.7906,-2.6310000000000002 c7.02476,-5.7807200000000005 20.036,-5.92391 25.94913,-5.64768 c-0.44413,-0.77126 -0.72541,-1.19042 -0.72541,-1.19042 a5.74958,5.74958 0 0 0 -1.9209,-1.25284 c-13.97432,-6.1474400000000005 -83.11666,-1.8490000000000002 -83.11666,-1.8490000000000002 l-25.73786,7.6610000000000005 C369.3058,158.70815143554688 368.18018,160.49182143554685 366.78,163.34730143554685 z" fill="#65617d" id="svg_72"/><path d="M451.70066,163.13625143554685 c1.3980000000000001,5.1769300000000005 7.15443,25.8978 7.15443,25.8978 a87.51618,87.51618 0 0 1 1.1572900000000002,10.00385 c9.79361,-0.32361000000000006 21.21563,-1.5937100000000002 27.13673,-3.32172 c10.69912,-3.12362 2.342,-9.42918 2.342,-9.42918 s-1.45762,-2.0219300000000002 -2.24736,-13.00605 a44.14756,44.14756 0 0 0 -6.44941,-19.40271 a5.74958,5.74958 0 0 0 -1.9209,-1.25284 C469.59655,154.62907143554685 450.64284,159.21721143554686 451.70066,163.13625143554685 z" fill="#65617d" id="svg_73"/><path d="M451.70066,163.13625143554685 c1.3980000000000001,5.1769300000000005 7.15443,25.8978 7.15443,25.8978 a87.51618,87.51618 0 0 1 1.1572900000000002,10.00385 c9.79361,-0.32361000000000006 21.21563,-1.5937100000000002 27.13673,-3.32172 c10.69912,-3.12362 2.342,-9.42918 2.342,-9.42918 s-1.45762,-2.0219300000000002 -2.24736,-13.00605 a44.14756,44.14756 0 0 0 -6.44941,-19.40271 a5.74958,5.74958 0 0 0 -1.9209,-1.25284 C469.59655,154.62907143554685 450.64284,159.21721143554686 451.70066,163.13625143554685 z" fill="#fff" opacity="0.1" id="svg_74"/><path d="M307.217,25.286721435546866 l30.51477,100.29641 L464.97338,107.16972143554688 l-16.81124,-60.27421 s-2.60706,-13.76075 -9.19233,-14.88233 C438.96981,32.01318143554687 337.25194,12.391721435546884 307.217,25.286721435546866 zm14.16244,15.72409 c-4.107,-13.53978 56.34542,-6.78878 56.34542,-6.78878 c8.13906,-0.6290900000000001 17.94858,0.05478000000000001 27.06708,1.15938 c3.3379000000000003,0.40707000000000004 6.58,0.8721700000000001 9.61745,1.3483800000000001 c6.7758,1.06531 12.52815,2.20107 15.96989,2.91926 c2.19022,0.45519 3.44625,0.7431800000000001 3.44625,0.7431800000000001 c12.01615,3.96645 17.92811,53.93815 17.92811,53.93815 c0.8980000000000001,5.25227 -5.3111,4.01315 -5.3111,4.01315 l-0.404,0.007310000000000001 l-5.66123,0.11247000000000001 l-16.87916,0.3443500000000001 l-82.30046,1.66161 c-4.85021,-0.5902000000000001 -5.48958,-6.33619 -5.48958,-6.33619 C333.16907,89.97172143554687 321.37946,41.010811435546884 321.37946,41.010811435546884 z" fill="#65617d" id="svg_75"/><path d="M446.03856,98.35084143554687 l0.404,-0.007310000000000001 s6.20911,1.23912 5.3111,-4.01315 c0,0 -5.912,-49.9717 -17.92811,-53.93815 c0,0 -1.256,-0.28800000000000003 -3.44625,-0.7431800000000001 C434.60868,48.29489143554687 448.13532,77.88300143554687 446.03856,98.35084143554687 z" fill="#65617d" id="svg_76"/><path d="M446.03856,98.35084143554687 l0.404,-0.007310000000000001 s6.20911,1.23912 5.3111,-4.01315 c0,0 -5.912,-49.9717 -17.92811,-53.93815 c0,0 -1.256,-0.28800000000000003 -3.44625,-0.7431800000000001 C434.60868,48.29489143554687 448.13532,77.88300143554687 446.03856,98.35084143554687 z" opacity="0.1" id="svg_77"/><path d="M432.55213,221.07096143554685 a8.02234,8.02234 0 0 0 7.43169,4.35354 l2.53906,-0.06175000000000001 l23.97368,-0.57933 l8.63974,-0.21078000000000002 l7.98729,-0.5122599999999999 L588.753,208.9633214355469 l-0.60646,-10.39232 l-12.14443,1.5057800000000001 l-5.02269,0.6231300000000001 l-74.55062,9.23211 l-9.8105,1.21578 l-4.75776,0.58823 l-20.10366,-0.52427 l-21.763090000000002,-0.57059 a8.22136,8.22136 0 0 0 -3.22152,0.55742 a7.82152,7.82152 0 0 0 -4.29235,3.9277 A6.56646,6.56646 0 0 0 432.55213,221.07096143554685 z" opacity="0.1" id="svg_78"/><path d="M432.53331,222.0678114355469 a8.02232,8.02232 0 0 0 7.43169,4.35354 l35.15248,-0.8518600000000001 l7.98728,-0.5122599999999999 l112.64377,-16.10138 l8.85407,-1.26376 l4.82457,-0.6916900000000002 c9.50768,-1.8148300000000002 6.86049,-11.33824 6.86049,-11.33824 c-0.5813,-4.3338600000000005 -16.78945,-8.62878 -22.10585,-8.55965 c-3.57576,0.04217000000000001 -4.1782,5.54032 -4.18645,9.145 c-0.003420000000000001,1.7650000000000001 0.13142,3.07384 0.13142,3.07384 l-5.26758,0.65341 L481.84172,212.73288143554686 L439.975,211.63802143554688 a8.04529,8.04529 0 0 0 -7.51387,4.48511 A6.56648,6.56648 0 0 0 432.53331,222.0678114355469 z" fill="#dce0ed" id="svg_79"/><path d="M601.70971,193.22623143554688 s-4.58936,5.39793 -11.583,6.09685 C590.12675,199.3230814355469 593.06724,193.22921143554686 601.70971,193.22623143554688 z" opacity="0.1" id="svg_80"/><path d="M602.58087,208.6993014355469 s14.79282,-0.05300000000000001 14.6422,7.92175 s-9.47961,9.12817 -9.47961,9.12817 l-132.5621,22.925 L437.621,248.62962143554688 s-12.92745,-10.71477 0.784,-15.10941 l37.8613,1.7122700000000002 l126.371,-20.71511 S599.39909,209.96881143554685 602.58087,208.6993014355469 z" opacity="0.1" id="svg_81"/><path d="M437.60214,249.6264614355469 l37.55871,0.046210000000000015 L593.03109,229.28732143554686 l8.62406,-1.49248 l6.0678,-1.04715 s9.330680000000001,-1.155 9.481300000000001,-9.12979 c0.10806000000000002,-5.72192 -7.48551,-7.31126 -11.78012,-7.75138 c-1.6870000000000003,-0.17145000000000002 -2.86377,-0.16875000000000004 -2.86377,-0.16875000000000004 c-3.18006,1.2662 0.059690000000000014,5.81479 0.059690000000000014,5.81479 l-4.60141,0.7557400000000002 L476.24737000000005,236.23098143554688 l-37.8613,-1.7122700000000002 C424.67635,238.9117214355469 437.60214,249.6264614355469 437.60214,249.6264614355469 z" fill="#dce0ed" id="svg_82"/><path d="M591.57181,202.0095714355469 l-7.74273,-3.63643 l-3.98424,-0.24145000000000003 l-0.30156000000000005,33.56673 l12.34149,-2.25991 l5.21312,-3.22555 l2.7557,-13.908760000000001 s-0.8870000000000001,-5.83376 -1.3760000000000001,-6.3416 S591.57181,202.0095714355469 591.57181,202.0095714355469 z" fill="#dce0ed" id="svg_83"/><path d="M591.57181,202.0095714355469 l-7.74273,-3.63643 l-3.98424,-0.24145000000000003 l-0.30156000000000005,33.56673 l12.34149,-2.25991 l5.21312,-3.22555 l2.7557,-13.908760000000001 s-0.8870000000000001,-5.83376 -1.3760000000000001,-6.3416 S591.57181,202.0095714355469 591.57181,202.0095714355469 z" opacity="0.1" id="svg_84"/><path d="M593.03109,229.28732143554686 c-0.09686000000000003,0.11283000000000001 -0.14785,0.17170000000000002 -0.14785,0.17170000000000002 l8.66911,-1.50161 c0.035930000000000004,-0.054160000000000014 0.07186000000000001,-0.10832000000000001 0.1028,-0.16257000000000002 c4.69425,-7.25575 5.19559,-13.20952 3.769,-17.92832 c-1.6870000000000003,-0.17145000000000002 -2.86377,-0.16875000000000004 -2.86377,-0.16875000000000004 c-3.18006,1.2662 0.059690000000000014,5.81479 0.059690000000000014,5.81479 l-4.60141,0.7557400000000002 C598.20362,222.84337143554689 593.893,228.2665014355469 593.03109,229.28732143554686 z" opacity="0.1" id="svg_85"/><path d="M580.84006,198.1488014355469 q2.17461,0.8862000000000001 4.01914,1.826 c5.53646,2.797 8.93348,5.88269 10.88933,8.98105 l8.85407,-1.26376 c-3.6776500000000003,-8.02713 -12.75017,-11.82831 -12.75017,-11.82831 l-1.8570700000000002,0.38377000000000006 z" opacity="0.1" id="svg_86"/><path d="M590.8572,195.8467214355469 s24.07458,10.0943 9.69828,32.0936 l-8.67071,1.49824 s17.48278,-19.28143 -12.03993,-31.306820000000002 z" fill="#dce0ed" id="svg_87"/><polygon points="532.836 205.554 523.871 205.052 524.685 241.133 539.19 238.748 545.393 235.873 548.353 228.783 550.481 221.676 545.786 215.106 540.372 211.347 532.836 205.554" fill="#dce0ed" id="svg_88"/><polygon points="532.836 205.554 523.871 205.052 524.685 241.133 539.19 238.748 545.393 235.873 548.353 228.783 550.481 221.676 545.786 215.106 540.372 211.347 532.836 205.554" opacity="0.1" id="svg_89"/><ellipse cx="721.7349853515625" cy="1170.8424072265625" rx="7.311500072479248" ry="4.320429801940918" transform="rotate(-88.91800689697266 145.25334167480463,793.4326171875) " fill="#dce0ed" id="svg_90"/><path d="M574.49235,234.88240143554685 a2.34444,2.34444 0 0 1 1.11382,3.29714 c-1.01331,1.81335 -2.233,4.1605 -2.1343,4.78893 c0.16690000000000005,1.06267 -2.18413,0.14572000000000002 -2.49094,-0.10937000000000001 s-4.61041,-0.08708000000000002 -4.80432,-3.02 a5.06964,5.06964 0 0 1 2.38993,-4.44227 l-0.8756500000000002,-6.436 l5.92819,-0.38664000000000004 l-0.17291000000000004,5.85529 z" fill="#636780" id="svg_91"/><path d="M574.49235,234.88240143554685 a2.34444,2.34444 0 0 1 1.11382,3.29714 c-1.01331,1.81335 -2.233,4.1605 -2.1343,4.78893 c0.16690000000000005,1.06267 -2.18413,0.14572000000000002 -2.49094,-0.10937000000000001 s-4.61041,-0.08708000000000002 -4.80432,-3.02 a5.06964,5.06964 0 0 1 2.38993,-4.44227 l-0.8756500000000002,-6.436 l5.92819,-0.38664000000000004 l-0.17291000000000004,5.85529 z" opacity="0.1" id="svg_92"/><path d="M572.87956,234.73037143554689 s-2.12313,6.81566 -1.2556,7.08134 S572.87956,234.73037143554689 572.87956,234.73037143554689 z" opacity="0.1" id="svg_93"/><path d="M570.66725,233.06814143554686 s-2.12313,6.81566 -1.25559,7.08134 S570.66725,233.06814143554686 570.66725,233.06814143554686 z" opacity="0.1" id="svg_94"/><path d="M547.17275,211.9723514355469 l2.93532,20.6676 s4.12262,-0.48556000000000005 6.39966,-0.93117 a4.5624,4.5624 0 0 0 1.43885,-0.41659 c0.11682000000000002,-0.11246000000000002 0.36086000000000007,-0.09790000000000003 0.6835900000000001,-0.027000000000000007 l0.005000000000000001,0.00010000000000000003 c1.10228,0.24519000000000002 3.05869,1.19958 3.45708,0.43425 a0.6763800000000001,0.6763800000000001 0 0 1 0.11274000000000002,-0.16239000000000003 l0.005090000000000001,-0.004890000000000001 c0.3967800000000001,-0.41631000000000007 1.14856,-0.09300000000000003 1.87915,0.030500000000000006 a1.5915599999999999,1.5915599999999999 0 0 0 1.16426,-0.13258 c0.6207600000000001,-0.39713000000000004 1.84941,0.28423 2.86207,0.5227400000000001 c0.64031,0.15172000000000002 1.19412,0.13223000000000001 1.4592399999999999,-0.44112000000000007 a1.3488700000000002,1.3488700000000002 0 0 1 1.00522,-0.6890000000000002 l0.005000000000000001,0.00009000000000000003 c0.9614900000000001,-0.22119000000000003 2.29914,-0.031380000000000005 3.07479,-0.18127000000000001 c0.30519,-0.054070000000000014 0.5166900000000001,-0.16474000000000005 0.59043,-0.37276000000000004 c0.15800000000000003,-0.44576000000000005 1.01931,-0.6438900000000002 1.93972,-0.801 c1.11552,-0.19332000000000002 2.31466,-0.32527000000000006 2.41294,-0.77713 c0.027740000000000004,-0.14900000000000002 0.13863,-0.21177 0.30318000000000006,-0.21366000000000002 a10.02985,10.02985 0 0 1 1.8107900000000001,0.48300000000000004 l0.005000000000000001,0.00009000000000000003 c0.49607000000000007,0.134 0.9096700000000001,0.14682 1.03607,-0.20980000000000001 c0.137,-0.39129 0.70935,-0.33563000000000004 1.35927,-0.16380000000000003 c0.52588,0.13958 1.1051900000000001,0.35493 1.55178,0.46808000000000005 c0.402,0.09734000000000002 0.6908400000000002,0.11777000000000003 0.7442400000000001,-0.07070000000000001 c0.17700000000000002,-0.6598000000000002 2.307,0.8762300000000001 2.83051,-0.44514000000000004 s7.50323,-9.99484 -1.08738,-21.6249 c0,0 -2.38559,0.11949000000000003 -4.211,0.41408000000000006 a6.57053,6.57053 0 0 0 -1.7637800000000001,0.46029 c-0.010000000000000002,-0.00019000000000000006 -0.015060000000000002,0.004710000000000001 -0.025100000000000004,0.009510000000000003 a10.22676,10.22676 0 0 1 -3.20686,0.30839000000000005 a4.18323,4.18323 0 0 0 -1.79234,0.39000000000000007 a1.17157,1.17157 0 0 0 -0.50849,0.5238700000000001 c-0.29107000000000005,0.6277400000000002 -0.93152,0.74528 -1.62854,0.6922200000000002 c-0.9410000000000001,-0.07261000000000001 -1.98092,-0.45122999999999996 -2.3682600000000003,-0.2691 a0.24448000000000003,0.24448000000000003 0 0 1 -0.03517000000000001,0.014310000000000002 c-0.70346,0.28586000000000006 -3.30474,-0.05244000000000001 -3.75653,0.3728100000000001 a0.25057,0.25057 0 0 0 -0.03565000000000001,0.03919000000000001 c-0.19467,0.27557000000000004 -1.21088,-0.03781000000000001 -2.24993,-0.19706000000000004 l-0.005000000000000001,-0.00009000000000000003 a2.53791,2.53791 0 0 0 -2.06959,0.28500000000000003 a2.25928,2.25928 0 0 1 -1.62891,0.4479000000000001 a9.34486,9.34486 0 0 0 -2.11491,0.044810000000000016 a0.84333,0.84333 0 0 0 -0.42368000000000006,0.25623999999999997 c-0.43353,0.51537 -1.444,0.42647000000000007 -2.347,0.45427 a2.38594,2.38594 0 0 0 -1.32711,0.30900000000000005 a1.18385,1.18385 0 0 1 -0.48226,0.19032000000000002 a14.270340000000001,14.270340000000001 0 0 1 -4.00354,-0.275 z" fill="#636780" id="svg_95"/><path d="M583.11718,228.5865014355469 c0.52588,0.13958 1.1051900000000001,0.35493 1.55178,0.46808000000000005 c6.94631,-10.33942 1.41446,-18.39658 -1.7236500000000001,-21.72666 a6.57053,6.57053 0 0 0 -1.7637800000000001,0.46029 C587.80738,215.7364014355469 584.47783,225.4461014355469 583.11718,228.5865014355469 z" opacity="0.1" id="svg_96"/><path d="M578.90606,228.47705143554685 a10.02985,10.02985 0 0 1 1.8107900000000001,0.48300000000000004 l0.005000000000000001,0.00009000000000000003 c5.96958,-10.10357 0.17261,-17.85162 -2.77227,-20.854 a4.18323,4.18323 0 0 0 -1.79234,0.39000000000000007 C582.48828,215.6858114355469 580.40331,224.44172143554687 578.90606,228.47705143554685 z" opacity="0.1" id="svg_97"/><path d="M573.65979,230.64161143554685 c0.30519,-0.054070000000000014 0.5166900000000001,-0.16474000000000005 0.59043,-0.37276000000000004 c0.15800000000000003,-0.44576000000000005 1.01931,-0.6438900000000002 1.93972,-0.801 c5.23867,-9.15508 0.8421700000000001,-16.34317 -2.16974,-19.75566 c-0.9410000000000001,-0.07261000000000001 -1.98092,-0.45122999999999996 -2.3682600000000003,-0.2691 a0.24448000000000003,0.24448000000000003 0 0 1 -0.03517000000000001,0.014310000000000002 C578.61276,217.60702143554687 574.97212,227.68472143554686 573.65979,230.64161143554685 z" opacity="0.1" id="svg_98"/><path d="M568.11555,231.95293143554687 c0.64031,0.15172000000000002 1.19412,0.13223000000000001 1.4592399999999999,-0.44112000000000007 a1.3488700000000002,1.3488700000000002 0 0 1 1.00522,-0.6890000000000002 l0.005000000000000001,0.00009000000000000003 c6.10587,-10.19077 0.22539000000000003,-18.00519 -2.72476,-20.99268 a0.25057,0.25057 0 0 0 -0.03565000000000001,0.03919000000000001 c-0.19467,0.27557000000000004 -1.21088,-0.03781000000000001 -2.24993,-0.19706000000000004 C573.80805,218.30404143554688 569.27917,229.4769214355469 568.11555,231.95293143554687 z" opacity="0.1" id="svg_99"/><path d="M562.21007,231.53227143554687 c0.3967800000000001,-0.41631000000000007 1.14856,-0.09300000000000003 1.87915,0.030500000000000006 c6.34868,-10.11139 0.8375,-17.94378 -2.218,-21.15761 a9.34486,9.34486 0 0 0 -2.11491,0.044810000000000016 C566.79741,218.32124143554688 563.64568,228.1190314355469 562.21007,231.53227143554687 z" opacity="0.1" id="svg_100"/><path d="M556.50773,231.70878143554688 a4.5624,4.5624 0 0 0 1.43885,-0.41659 c0.11682000000000002,-0.11246000000000002 0.36086000000000007,-0.09790000000000003 0.6835900000000001,-0.027000000000000007 l0.005000000000000001,0.00010000000000000003 c5.63414,-9.23736 1.41424,-16.53679 -1.6496000000000002,-20.10482 a2.38594,2.38594 0 0 0 -1.32711,0.30900000000000005 a1.18385,1.18385 0 0 1 -0.48226,0.19032000000000002 C560.99689,219.47313143554686 557.82128,228.6871414355469 556.50773,231.70878143554688 z" opacity="0.1" id="svg_101"/><ellipse cx="428.0570373535156" cy="1071.495361328125" rx="39.88093185424805" ry="27.085800170898438" transform="rotate(-88.91800689697266 -10.107170104980392,674.4271240234376) " fill="#636780" id="svg_102"/><ellipse cx="429.2469177246094" cy="1073.584228515625" rx="32.32017135620117" ry="19.69120979309082" transform="rotate(-88.91800689697266 -9.82007026672368,675.9171752929688) " opacity="0.1" id="svg_103"/><ellipse cx="430.2808837890625" cy="1071.628173828125" rx="32.32017135620117" ry="19.69120979309082" transform="rotate(-88.91800689697266 -8.80492973327628,674.9580078125001) " fill="#f0f0f4" id="svg_104"/><ellipse cx="445.760498046875" cy="1025.379150390625" rx="3.9880900382995605" ry="2.326390027999878" transform="rotate(-88.91800689697266 9.837220191955565,650.4578247070312) " fill="#636780" id="svg_105"/><ellipse cx="391.3152770996094" cy="1084.1903076171875" rx="3.9880900382995605" ry="2.326390027999878" transform="rotate(-88.91800689697266 -34.64516830444331,674.55517578125) " fill="#636780" id="svg_106"/><ellipse cx="457.775146484375" cy="1077.611083984375" rx="3.9880900382995605" ry="2.326390027999878" transform="rotate(-88.91800689697266 6.41364002227781,684.1161499023438) " fill="#636780" id="svg_107"/><ellipse cx="420.2829895019531" cy="1116.1866455078125" rx="3.9880900382995605" ry="2.326390027999878" transform="rotate(-88.91800689697266 -23.827459335327156,699.5606689453125) " fill="#636780" id="svg_108"/><path d="M198.35131,166.3289614355469 s-20.41749,51.46883 -19.48183,54.72741 c0,0 -8.31811,4.8289 -10.28827,3.54519 s0.20735,-24.17821 0.20735,-24.17821 l4.11941,-20.11552 l4.46252,-11.88213 z" fill="#65617d" id="svg_109"/><path d="M198.35131,166.3289614355469 s-20.41749,51.46883 -19.48183,54.72741 c0,0 -8.31811,4.8289 -10.28827,3.54519 s0.20735,-24.17821 0.20735,-24.17821 l4.11941,-20.11552 l4.46252,-11.88213 z" opacity="0.15" id="svg_110"/><ellipse cx="407.19775390625" cy="1038.36279296875" rx="3.9880900382995605" ry="2.326390027999878" transform="rotate(-88.91800689697266 -15.847809791564941,650.3887329101562) " fill="#636780" id="svg_111"/><ellipse cx="421.9792785644531" cy="1070.3681640625" rx="9.471719741821289" ry="6.812990188598633" transform="rotate(-88.91800689697266 -13.510979652404721,672.5194091796876) " fill="#636780" id="svg_112"/><path d="M175.36145,235.2002214355469 c-0.5666900000000001,30.00457 8.8859,57.50688 36.60484,55.0388 c34.90371,-0.08869000000000003 38.0903,-23.61279 38.657000000000004,-53.61736 s-15.85951,-52.65258 -36.64249,-53.0451 S175.92813,205.19566143554687 175.36145,235.2002214355469 z" fill="#636780" id="svg_113"/><path d="M175.14279,235.2470714355469 c0.43873,-23.22992 10.89051,-41.66538 25.23208,-48.6255 c18.17583,3.81334 31.80413,25.06076 31.28712,52.43526 c-0.46440000000000003,24.589 -2.69316,44.822 -22.69094,51.37492 C183.39627,290.86772143554685 174.59548,264.2260714355469 175.14279,235.2470714355469 z" opacity="0.1" id="svg_114"/><path d="M160.898,222.21272143554688 s4.90421,4.33073 7.702,1.3920000000000001 c0,0 7.74536,-53.70257 16.22326,-53.79175 l29.16243,0.3014800000000001 s3.4607200000000002,1.56116 4.83361,8.0689 l17.84179,54.02128 l103.3147,3.44706 l8.20229,-16.38366 l-85.4842,-1.3652 l-0.009220000000000002,-0.04007000000000001 c-0.43228000000000005,-1.66352 -13.74888,-52.93184 -23.22868,-59.45805 c-0.004890000000000001,-0.005080000000000001 -0.009880000000000003,-0.0051800000000000014 -0.014780000000000003,-0.010260000000000002 a4.16644,4.16644 0 0 0 -1.042,-0.53322 s-35.5478,-5.40808 -47.32192,-2.38955 c0,0 -12.26313,2.5106900000000003 -15.32427,6.19238 a0.3012,0.3012 0 0 0 -0.025480000000000006,0.029430000000000005 c-0.40664,0.41113 -5.13038,5.5323 -6.84467,20.53274 z" opacity="0.1" id="svg_115"/><path d="M160.87919,223.20959143554688 s4.9042200000000005,4.33073 7.702,1.3920000000000001 c0,0 7.74537,-53.70257 16.22326,-53.79175 l29.16243,0.3014800000000001 s3.4607200000000002,1.56116 4.83362,8.06889 l17.84178,54.02128 L339.957,236.64852143554685 l8.20228,-16.38365 l-85.4842,-1.36521 l-0.009220000000000002,-0.04007000000000001 c-0.43228000000000005,-1.66352 -13.74888,-52.93183 -23.22867,-59.458 c-0.004900000000000002,-0.005090000000000001 -0.009890000000000003,-0.0051800000000000014 -0.014780000000000003,-0.010270000000000003 a4.16683,4.16683 0 0 0 -1.042,-0.53322 s-35.5478,-5.40808 -47.32192,-2.38955 c0,0 -12.26313,2.5107 -15.32426,6.19239 a0.29800000000000004,0.29800000000000004 0 0 0 -0.025480000000000006,0.029430000000000005 c-0.40664,0.41113 -5.13039,5.53229 -6.84468,20.53273 z" fill="#65617d" id="svg_116"/><path d="M160.87919,223.20959143554688 s4.9042200000000005,4.33073 7.702,1.3920000000000001 c0,0 7.74537,-53.70257 16.22326,-53.79175 l29.16243,0.3014800000000001 s3.4607200000000002,1.56116 4.83362,8.06889 l17.84178,54.02128 L339.957,236.64852143554685 l8.20228,-16.38365 l-85.4842,-1.36521 l-0.009220000000000002,-0.04007000000000001 c-0.43228000000000005,-1.66352 -13.74888,-52.93183 -23.22867,-59.458 c-0.004900000000000002,-0.005090000000000001 -0.009890000000000003,-0.0051800000000000014 -0.014780000000000003,-0.010270000000000003 a4.16683,4.16683 0 0 0 -1.042,-0.53322 s-35.5478,-5.40808 -47.32192,-2.38955 c0,0 -12.26313,2.5107 -15.32426,6.19239 a0.29800000000000004,0.29800000000000004 0 0 0 -0.025480000000000006,0.029430000000000005 c-0.40664,0.41113 -5.13039,5.53229 -6.84468,20.53273 z" opacity="0.1" id="svg_117"/><path d="M225.28967,165.5912314355469 c2.4026899999999998,4.78208 22.73348,63.50232 22.73348,63.50232 l14.65194,-10.19389 l-0.009220000000000002,-0.04007000000000001 c-0.43228000000000005,-1.66352 -13.76281,-52.98693 -23.24345,-59.46831 C233.16199999999998,160.3400614355469 223.65573999999998,162.34439143554687 225.28967,165.5912314355469 z" fill="#65617d" id="svg_118"/><path d="M253.70499999999998,139.45277143554688 l10.9881,38.59977 l61.08972,-0.59133 l-0.6066700000000002,5.72245 s-47.98037,6.07422 -68.23685,-3.78177 l-10.30321,-35.26282 l-96.37114,-1.32152 l18.44016,-3.97294 z" fill="#65617d" id="svg_119"/><path d="M253.70499999999998,139.45277143554688 l10.9881,38.59977 l61.08972,-0.59133 l-0.6066700000000002,5.72245 s-47.98037,6.07422 -68.23685,-3.78177 l-10.30321,-35.26282 l-96.37114,-1.32152 l18.44016,-3.97294 z" fill="#fff" opacity="0.1" id="svg_120"/><path d="M538.82356,205.3345414355469 s32.41911,17.0661 7.87072,32.05908 l-6.5077300000000005,1.3729 s24.08134,-16.663800000000002 -15.31883,-33.69555 z" opacity="0.1" id="svg_121"/><path d="M537.82671,205.3157214355469 s32.41912,17.0661 7.87073,32.05908 L539.1897,238.74772143554685 s24.08135,-16.663800000000002 -15.31882,-33.69555 z" fill="#dce0ed" id="svg_122"/><ellipse cx="42.32293701171875" cy="866.9703369140625" rx="31.15696907043457" ry="18.195669174194336" transform="rotate(-88.91800689697266 -199.13514709472656,473.86651611328125) " fill="#636780" id="svg_123"/><ellipse cx="42.83006286621094" cy="868.9263916015625" rx="25.25012969970703" ry="13.228139877319336" transform="rotate(-88.91800689697266 -199.2291717529297,475.13861083984375) " opacity="0.1" id="svg_124"/><ellipse cx="43.86402893066406" cy="866.9703369140625" rx="25.25012969970703" ry="13.228139877319336" transform="rotate(-88.91800689697266 -198.21403503417977,474.1794128417969) " fill="#f0f0f4" id="svg_125"/><ellipse cx="56.72479248046875" cy="831.243896484375" rx="3.1157000064849854" ry="1.5628199577331543" transform="rotate(-88.91800689697266 -183.27357482910156,455.4368896484375) " fill="#636780" id="svg_126"/><ellipse cx="16.188003540039062" cy="878.24658203125" rx="3.1157000064849854" ry="1.5628199577331543" transform="rotate(-88.91800689697266 -217.04541015625003,475.30007934570307) " fill="#636780" id="svg_127"/><ellipse cx="62.72084045410156" cy="870.2579345703125" rx="3.1157000064849854" ry="1.5628199577331543" transform="rotate(-88.91800689697266 -187.6108245849609,479.9729309082031) " fill="#636780" id="svg_128"/><ellipse cx="34.89329528808594" cy="901.1685791015625" rx="3.1157000064849854" ry="1.5628199577331543" transform="rotate(-88.91800689697266 -210.5191497802735,492.7983093261719) " fill="#636780" id="svg_129"/><ellipse cx="29.309921264648438" cy="842.8211059570312" rx="3.1157000064849854" ry="1.5628199577331543" transform="rotate(-88.91800689697266 -202.00996398925784,456.7904968261718) " fill="#636780" id="svg_130"/><ellipse cx="38.14570617675781" cy="866.3915405273438" rx="7.399779796600342" ry="4.57682991027832" transform="rotate(-88.91800689697266 -201.51435852050776,472.67245483398443) " fill="#636780" id="svg_131"/><path d="M465.23907,106.30219143554689 s-55.36257,0.9487900000000001 -127.50728,19.28094 z" opacity="0.1" id="svg_132"/><path d="M203.10181,4.463661435546868 s2.99512,0.5374099999999999 1.358,4.47344 a27.4,27.4 0 0 0 -1.916,5.97434 s-3.0337,1.5054400000000001 -2.8159400000000003,-3.6595 S203.10181,4.463661435546868 203.10181,4.463661435546868 z" fill="#dce0ed" id="svg_133"/><polyline points="319.533 99.18 323.943 116.733 339.136 103.42" fill="none" stroke="#000" stroke-miterlimit="10" id="svg_134"/><rect x="351.2474365234375" y="58.55274963378906" width="45.5747184753418" height="44.7889404296875" transform="rotate(9.739049911499023 11.5020904541014,-210.35752868652347) " fill="#fff" id="svg_135"/><path d="M313.88561,157.70285143554685 l0.8448700000000001,-4.92249 a14.40243,14.40243 0 0 1 -7.089,-3.4244 l1.7302300000000002,-3.06487 a15.26935,15.26935 0 0 0 7.21488,3.396 c3.46033,0.59391 6.14279,-1.003 6.61964,-3.78124 c0.46006,-2.6805000000000003 -1.1562000000000001,-4.66384 -4.51219,-6.74509 c-4.636620000000001,-2.80279 -6.76628,-5.47634 -6.03847,-9.71676 c0.6942900000000002,-4.04519 3.81883,-6.66977 8.42844,-6.63136 l0.8448700000000001,-4.92249 l2.46546,0.42315 l-0.81141,4.72754 a13.1921,13.1921 0 0 1 6.04352,2.79353 l-1.77067,3.00733 a10.74276,10.74276 0 0 0 -5.57869,-2.66315 c-3.7528900000000003,-0.6441200000000001 -4.995,1.45044 -5.3296,3.4 c-0.43500000000000005,2.53442 0.5947200000000001,4.016 4.53385,6.49835 c4.6686700000000005,2.90836 7.32418,5.9732199999999995 6.57965,10.31112 c-0.6608300000000001,3.85023 -3.96041,6.99711 -9.12257,6.96394 l-0.8700000000000001,5.06884 z" fill="#636780" id="svg_136"/><path d="M313.12166,317.66691143554687 a1.5009000000000001,1.5009000000000001 0 0 0 0,-3 a1.5009000000000001,1.5009000000000001 0 0 0 0,3 z" fill="#65617d" id="svg_137"/></g><ellipse cx="557" cy="421.0159606933594" rx="557" ry="173.7754669189453" fill="#9acd32" opacity="0.1" id="svg_1" class="" fill-opacity="1"/><ellipse cx="663.9074096679688" cy="451.6324768066406" rx="18.67647933959961" ry="3.157249927520752" fill="#6c63ff" opacity="0.1" id="svg_138"/><path d="M651.36474,436.9615914355469 s10.65346,-0.3281200000000001 13.86414,-2.6144 s16.3877,-5.01624 17.18419,-1.3495300000000001 s16.01017,18.23649 3.98247,18.33351 s-27.947,-1.8735 -31.15153,-3.8254900000000003 S651.36474,436.9615914355469 651.36474,436.9615914355469 z" fill="#a8a8a8" id="svg_139"/><path d="M686.61019,450.05477143554685 c-12.0277,0.09700000000000003 -27.947,-1.87348 -31.15153,-3.8254799999999998 c-2.4404,-1.48654 -3.41288,-6.82063 -3.73826,-9.28157 c-0.22534000000000004,0.009690000000000002 -0.35565,0.013860000000000003 -0.35565,0.013860000000000003 s0.6747600000000001,8.59209 3.87927,10.54409 s19.12382,3.92252 31.15152,3.8254799999999998 c3.47192,-0.028000000000000004 4.67119,-1.26326 4.60534,-3.09278 C690.51855,449.34372143554685 689.19438,450.0339414355469 686.61019,450.05477143554685 z" opacity="0.2" id="svg_140"/><ellipse cx="772.2349853515625" cy="414.84368896484375" rx="14.37168025970459" ry="2.4295198917388916" fill="#6c63ff" opacity="0.1" id="svg_141"/><path d="M762.58333,403.5543314355468 s8.19791,-0.25249 10.66856,-2.0118 s12.61045,-3.8600000000000003 13.22336,-1.03848 s12.31994,14.03312 3.06454,14.10777 s-21.50544,-1.44167 -23.97133,-2.94374 S762.58333,403.5543314355468 762.58333,403.5543314355468 z" fill="#a8a8a8" id="svg_142"/><path d="M789.705,413.6296314355469 c-9.25541,0.07467000000000001 -21.50543,-1.4416600000000002 -23.97133,-2.94374 c-1.87791,-1.14391 -2.62623,-5.24852 -2.87662,-7.14224 c-0.17340000000000003,0.007460000000000002 -0.27367,0.010670000000000002 -0.27367,0.010670000000000002 s0.51923,6.61168 2.98512,8.11375 s14.71593,3.01841 23.97133,2.94374 c2.67167,-0.021550000000000007 3.59451,-0.97209 3.5438400000000003,-2.3799200000000003 C792.71247,413.08247143554684 791.69352,413.6135914355468 789.705,413.6296314355469 z" opacity="0.2" id="svg_143"/><ellipse cx="707.02734375" cy="568.4384155273438" rx="34.30915832519531" ry="5.79994010925293" fill="#6c63ff" opacity="0.1" id="svg_144"/><path d="M683.98611,541.4876414355468 s19.57067,-0.6027600000000001 25.46877,-4.80272 s30.10463,-9.215 31.5678,-2.47913 s29.41109,33.5009 7.3159,33.67913 s-51.3394,-3.4416700000000002 -57.22615,-7.02752 S683.98611,541.4876414355468 683.98611,541.4876414355468 z" fill="#a8a8a8" id="svg_145"/><path d="M748.73289,565.5401514355469 c-22.09519,0.17827 -51.33938,-3.44164 -57.22615,-7.02751 c-4.48308,-2.73082 -6.26954,-12.52967 -6.86728,-17.05048 c-0.41395000000000004,0.017800000000000003 -0.6533400000000001,0.025460000000000007 -0.6533400000000001,0.025460000000000007 s1.23956,15.78389 7.12632,19.36976 s35.13095,7.20578 57.22615,7.02751 c6.378,-0.05144000000000001 8.58108,-2.32064 8.46011,-5.68152 C755.91265,564.2339214355469 753.48013,565.5018814355469 748.73289,565.5401514355469 z" opacity="0.2" id="svg_146"/><path d="M1069.28952,364.27379143554685 a89.33035,89.33035 0 0 1 -178.33139,7.66639 c-0.12993000000000002,-1.45095 -0.22735000000000002,-2.902 -0.27071,-4.37461 v-0.0758 q-0.06493000000000002,-1.608 -0.06500000000000002,-3.216 a89.33354,89.33354 0 0 1 178.66707,0 z" fill="#65617d" id="svg_147"/><path d="M1069.28952,364.27379143554685 a89.33035,89.33035 0 0 1 -178.33139,7.66639 c-0.12993000000000002,-1.45095 -0.22735000000000002,-2.902 -0.27071,-4.37461 v-0.0758 q-0.06493000000000002,-1.608 -0.06500000000000002,-3.216 a89.33354,89.33354 0 0 1 178.66707,0 z" opacity="0.2" id="svg_148"/><circle cx="979.9534912109375" cy="364.2738037109375" r="48.727378845214844" fill="#dce0ed" id="svg_149"/><circle cx="979.9534912109375" cy="364.2738037109375" r="29.23642921447754" fill="#65617d" id="svg_150"/><path d="M592.37776,364.27379143554685 a89.33035,89.33035 0 0 1 -178.3314,7.66639 c-0.12993000000000002,-1.45095 -0.22735000000000002,-2.902 -0.2707,-4.37461 v-0.0758 q-0.06493000000000002,-1.608 -0.06500000000000002,-3.216 a89.33354,89.33354 0 0 1 178.66707,0 z" fill="#65617d" id="svg_151"/><path d="M592.37776,364.27379143554685 a89.33035,89.33035 0 0 1 -178.3314,7.66639 c-0.12993000000000002,-1.45095 -0.22735000000000002,-2.902 -0.2707,-4.37461 v-0.0758 q-0.06493000000000002,-1.608 -0.06500000000000002,-3.216 a89.33354,89.33354 0 0 1 178.66707,0 z" opacity="0.2" id="svg_152"/><circle cx="503.0417175292969" cy="364.2738037109375" r="48.727378845214844" fill="#dce0ed" id="svg_153"/><circle cx="503.0417175292969" cy="364.2738037109375" r="29.23642921447754" fill="#65617d" id="svg_154"/><path d="M1097.15257,347.5343414355469 l-29.807,-1.296 l-27.21508,-50.54228 l-95.90073,-7.77574 l-46.65441,60.90993 l2.59191,16.84742 l-6.4798,15.55148 l-304.54961,2.59191 v-7.77574 H586.546 l-2.59192,-11.6636 h23.32721 l-16.84743,-18.14338 l-59.614,-50.54228 s-102.38051,2.59191 -103.67647,0 s5.8318,-29.159 5.8318,-29.159 l44.0625,-12.95956 l150.33089,-11.6636 c33.04687,-52.48622 62.85386,-77.10938 62.85386,-77.10938 h386.19485 l18.14338,93.30883 v0.22021000000000004 z" fill="#444053" id="svg_155" class=""/><path d="M882.0239,354.0141214355469 s38.87867,-72.57353 68.68566,-72.57353 h72.57353 s18.14338,0 25.91912,14.25552 l29.807,58.318 H1055.682 s-19.43934,-54.43015 -41.47059,-55.7261 s-59.614,0 -59.614,0 s-12.95956,0 -20.7353,15.55147 s-34.06581,49.427 -34.06581,49.427 S871.65625,372.1575014355469 882.0239,354.0141214355469 z" fill="#33323d" id="svg_156"/><polygon points="1114 342.351 1065.252 342.351 1064.754 381.229 1114 369.566 1114 342.351" fill="#33323d" id="svg_157"/><path d="M409,319.0233114355469 s2.59191,-19.43934 20.73529,-27.21507 l119.228,-6.47978 s19.43933,1.296 29.807,25.91912 l33.69485,50.54228 v7.77573 H574.88235 s-18.14338,-68.68566 -69.98161,-66.09375 H442.69485 s-14.25551,0 -19.43934,23.32721 z" fill="#33323d" id="svg_158"/><path d="M688.92647,172.58028143554685 v0 h397.85846 v0 a14.25551,14.25551 0 0 0 -14.2555,-14.2555 H703.182 A14.25551,14.25551 0 0 0 688.92647,172.58028143554685 z" fill="#33323d" id="svg_159"/><path d="M774.18914,249.0417214355469 H664.0934 a7.44346,7.44346 0 0 1 -6.80191,-10.46653 l17.42127,-39.19784 a34.21209,34.21209 0 0 1 31.26341,-20.31725 h66.89151 a9.36761,9.36761 0 0 1 9.36761,9.36762 v52.56784 A8.04615,8.04615 0 0 1 774.18914,249.0417214355469 z" fill="#9acd32" opacity="0.3" id="svg_160" class="" fill-opacity="1"/><rect x="810.746337890625" y="179.06007385253906" width="107.56433868408203" height="69.98162078857422" rx="5.539370059967041" fill="#9acd32" opacity="0.3" id="svg_161" class="" fill-opacity="1"/><polygon points="1094.561 258.113 1094.561 258.334 927.382 260.705 923.028 164.805 1076.417 164.805 1094.561 258.113" fill="#33323d" id="svg_162"/><rect x="941.6378784179688" y="179.06007385253906" width="123.11580657958984" height="69.98162078857422" rx="5.539370059967041" fill="#9acd32" opacity="0.3" id="svg_163" class="" fill-opacity="1"/><rect x="748.5404663085938" y="273.66485595703125" width="41.47058868408203" height="7.775740146636963" rx="1.7598400115966797" fill="#33323d" id="svg_164"/><rect x="867.7683715820312" y="273.66485595703125" width="41.47058868408203" height="7.775740146636963" rx="1.7598400115966797" fill="#33323d" id="svg_165"/><path d="M370.615,418.1110814355469 c-6.19649,6.73726 -10.75751,9.38918 -10.54248,2.28051 c0.6515700000000001,-21.502 -37.12675,-118.717 -37.12675,-118.717 l11.1745,-0.8470000000000001 C358.50221,342.88019143554686 367.5656,386.0926614355469 370.615,418.1110814355469 z" fill="none" id="svg_168"/><path d="M423.92034,465.0244914355469 a53.753,53.753 0 0 1 -107.30793,4.61313 c-0.07818000000000001,-0.8730900000000001 -0.1368,-1.74622 -0.16289000000000003,-2.63235 v-0.045620000000000015 q-0.039080000000000004,-0.96758 -0.03909000000000001,-1.93516 a53.755,53.755 0 0 1 107.50991,0 z" fill="#65617d" id="svg_169"/><circle cx="370.16387939453125" cy="465.02447509765625" r="29.320880889892578" fill="#dce0ed" id="svg_170"/><circle cx="370.16387939453125" cy="465.02447509765625" r="17.592529296875" fill="#65617d" id="svg_171"/><path d="M228.99511,362.9421714355469 l-129.442,2.6063 V346.4378014355469 c1.15982,-15.35763 16.90838,-20.74617 31.28213,-22.43373 a89.77451,89.77451 0 0 1 33.44537,2.50855 c27.46387,7.27156 44.97821,8.679 53.579,8.81583 a8.219,8.219 0 0 1 7.94923,6.68513 c0.41050000000000003,2.1828 0.81447,4.561 1.19239,6.90672 c0.2867,1.83745 0.56035,3.64881 0.808,5.3364 C228.51943,359.1500414355469 228.99511,362.9421714355469 228.99511,362.9421714355469 z" fill="#65617d" id="svg_172"/><path d="M332.26326,467.24736143554685 H63.36468000000001 a10.58547,10.58547 0 0 1 -9.8062,-6.3398200000000005 c-2.02642,-4.84119 0.8079500000000002,-7.9296500000000005 3.83127,-9.741 a30.46331,30.46331 0 0 0 13.24,-16.19815 c2.86691,-8.43791 5.66868,-21.7235 6.76984,-42.43058 c1.13373,-21.41727 8.88749,-32.00537 17.26674,-37.13326 h0.006520000000000004 c10.82266,-6.62 22.68786,-4.13753 22.68786,-4.13753 l109.02809,0.8731300000000002 a20.956690000000002,20.956690000000002 0 0 1 5.32336,3.47291 c9.715,9.04386 -4.45027,20.8504 -4.45027,20.8504 c-30.409,32.14218 -7.38884,64.72094 -7.38884,64.72094 h55.78787 a51.33863,51.33863 0 0 0 29.22313,-8.94612 c7.53873,-5.20607 10.45777,-10.24926 11.585,-13.29863 c0.8600900000000002,-2.33265 1.73318,-4.65878 2.77572,-6.91324 c14.634360000000001,-31.7382 -3.01679,-83.369 -10.63371,-102.6752 c-1.88958,-4.8021 -3.16016,-7.60391 -3.16016,-7.60391 l17.49481,-1.32267 l11.06374,-0.84052 l0.11076000000000005,-0.006520000000000004 c24.382,42.05265 33.44536,85.26512 36.49473,117.28354 c0.28669,3.01679 0.52125,5.94236 0.71023,8.75065 A39.10084,39.10084 0 0 1 332.26326,467.24736143554685 z" fill="#9acd32" id="svg_173" class="" fill-opacity="1"/><path d="M227.80924,354.25672143554686 H99.55315999999999 v-5.3364 H227.00128999999998 C227.288,350.7577214355469 227.56164,352.56911143554686 227.80924,354.25672143554686 z" opacity="0.1" id="svg_174"/><path d="M231.71217000000001,356.86301143554687 H95.70236 a2.57218,2.57218 0 0 1 -1.0295,-0.20851000000000003 c10.82266,-6.62 22.68786,-4.13753 22.68786,-4.13753 l109.02809,0.8731300000000001 A20.956690000000002,20.956690000000002 0 0 1 231.71217000000001,356.86301143554687 z" opacity="0.1" id="svg_175"/><rect x="45.448429107666016" y="350.2261047363281" width="190.06459045410156" height="5.333740234375" rx="2.6668701171875" fill="#dce0ed" id="svg_176"/><path d="M370.615,418.1110814355469 c-6.19649,6.73726 -10.75751,9.38918 -10.54248,2.28051 c0.6515700000000001,-21.502 -37.12675,-118.717 -37.12675,-118.717 l11.1745,-0.8470000000000001 C358.50221,342.88019143554686 367.5656,386.0926614355469 370.615,418.1110814355469 z" opacity="0.1" id="svg_177"/><path d="M423.59455,459.1342314355469 c-6.418,1.53774 -14.35418,3.1015 -24.14085,4.535 q-5.45372,0.80145 -11.70231,1.5377100000000001 c-9.988620000000001,1.18587 -21.54108,2.2219 -34.88532,3.0168 q-5.66869,0.34210000000000007 -11.774000000000001,0.6190000000000001 q-11.43516,0.518 -24.47969,0.79491 l-0.16289000000000003,-2.63235 v-0.045620000000000015 c12.15189,-4.90634 31.26909,-17.9965 34.35106,-52.09345 a53.783,53.783 0 0 1 72.794,44.268 z" opacity="0.1" id="svg_178"/><path d="M306.31753,468.49736143554685 s61.70418,-6.683870000000001 40.46283,-100.71164 c0,0 30.49066,27.948 49.45455,43.48382 S449,448.2207214355469 449,448.2207214355469 S428.81367,467.08620143554685 306.31753,468.49736143554685 z" fill="#9acd32" id="svg_179" class="" fill-opacity="1"/><circle cx="141.468994140625" cy="465.02447509765625" r="53.75495910644531" fill="#65617d" id="svg_181"/><circle cx="141.468994140625" cy="465.02447509765625" r="29.320880889892578" fill="#dce0ed" id="svg_182"/><circle cx="141.468994140625" cy="465.02447509765625" r="17.592529296875" fill="#65617d" id="svg_183"/><path d="M201.73971,448.8813014355469 c0,-34.7145 -27.56754,-62.85615 -61.57386,-62.85615 S78.592,414.16680143554686 78.592,448.8813014355469 c0,1.46475 0.05320000000000001,2.91664 0.14975000000000002,4.3563600000000005 H201.59 C201.68652,451.79794143554693 201.73971,450.3460514355469 201.73971,448.8813014355469 z" opacity="0.1" id="svg_184"/><path d="M199.4592,447.79797143554686 c0,-33.42878 -26.54652,-60.52815 -59.29335,-60.52815 s-59.29334,27.09937 -59.29334,60.52815 c0,1.41051 0.05122000000000001,2.80861 0.14420000000000002,4.195 H199.315 C199.408,450.6065814355469 199.4592,449.2084814355469 199.4592,447.79797143554686 z" fill="#9acd32" id="svg_185" class="" fill-opacity="1"/><path d="M199.38753,450.6898414355469 c-0.019560000000000004,0.43654000000000004 -0.04561000000000002,0.86656 -0.07166000000000002,1.30315 h-118.3 c-0.026000000000000006,-0.43659000000000003 -0.05209000000000001,-0.8666100000000001 -0.07166000000000002,-1.30315 z" opacity="0.1" id="svg_187"/><ellipse cx="182.3677520751953" cy="550.249755859375" rx="7.803440093994141" ry="19.652769088745117" transform="rotate(-24.332870483398438 -212.55201721191406,53.61029052734376) " opacity="0.1" id="svg_188"/><ellipse cx="183.34567260742188" cy="549.8087768554688" rx="7.803440093994141" ry="19.652769088745117" transform="rotate(-24.332870483398438 -212.22567749023438,53.82088088989261) " fill="#dce0ed" id="svg_189"/><path d="M334.00948,300.83406143554686 v10.21017 h-19.873 a34.24153,34.24153 0 0 1 -5.52534,-0.4430700000000001 c-1.88958,-4.8021 -3.16016,-7.60391 -3.16016,-7.60391 l17.49481,-1.32267 z" opacity="0.1" id="svg_190"/><path d="M334.00948,308.4902114355469 h-19.873 c-17.453,0 -31.60139,-13.05818 -31.60139,-29.16627 v-2.70615 c0,-16.10809 14.14842,-29.16627 31.60139,-29.16627 l19.873,1.8041 z" fill="#9acd32" id="svg_191" class="" fill-opacity="1"/><path d="M301.26782,265.9682614355469 s11.89125,6.35286 5.04971,17.10385 c0,0 -8.389,13.76453 -21.58343,12.46138 l-4.80536,-29.56523 S295.72943,264.50222143554686 301.26782,265.9682614355469 z" fill="#9acd32" id="svg_192" class="" fill-opacity="1"/><path d="M333.3579,250.50562h0A15.96358,15.96358,0,0,1,349.3215,266.4692v27.30744a15.96358,15.96358,0,0,1-15.96358,15.96358h0a0,0,0,0,1,0,0V250.50562A0,0,0,0,1,333.3579,250.50562Z" opacity="0.1" id="svg_194"/><path d="M334.00948,250.50562h0a15.96358,15.96358,0,0,1,15.96358,15.96358v27.30744a15.96358,15.96358,0,0,1-15.96358,15.96358h0a0,0,0,0,1,0,0V250.50562A0,0,0,0,1,334.00948,250.50562Z" fill="#dce0ed" id="svg_195"/><ellipse cx="278.5527038574219" cy="280.0946350097656" rx="13.202949523925781" ry="16.062149047851562" fill="#9acd32" id="svg_196" class="" fill-opacity="1"/><polyline points="137.953 355.597 143.722 368.443 153.363 355.597" fill="none" stroke="#000" stroke-miterlimit="10" id="svg_197"/><rect x="51" y="246.77072143554688" width="7" height="108" fill="#dce0ed" id="svg_200"/><path d="M51,246.77072143554688 s-26,1 -31,3 s-20,1 -20,1 v28 s17,-4 26,-1 s28,-4 28,-4 z" fill="#dce0ed" id="svg_201"/></g></svg>