<svg xmlns="http://www.w3.org/2000/svg" data-name="Layer 1" width="1032" height="741.75278"><rect id="backgroundrect" width="100%" height="100%" x="0" y="0" fill="none" stroke="none"/><title>profile</title><g class="currentLayer" style=""><title>Layer 1</title><line y1="741.2528076171875" x2="166" y2="741.2528076171875" fill="none" stroke="#3f3d56" stroke-miterlimit="10" id="svg_1"/><rect x="243" y="127.75277709960938" width="737" height="499" rx="19.397640228271484" fill="#f2f2f2" id="svg_2"/><rect x="220.5" y="96.25277709960938" width="737" height="499" rx="19.397640228271484" fill="none" stroke="#3f3d56" stroke-miterlimit="10" id="svg_3" class=""/><line x1="220.5" y1="144.09298706054688" x2="957.5" y2="144.09298706054688" fill="none" stroke="#3f3d56" stroke-miterlimit="10" id="svg_4"/><rect x="661" y="256.2527770996094" width="201" height="31" rx="7.092520236968994" fill="#9acd32" opacity="0.3" id="svg_5" class="" fill-opacity="1"/><rect x="622.5" y="342.2527770996094" width="278" height="25" rx="7.092520236968994" fill="#9acd32" opacity="0.3" id="svg_6" class="" fill-opacity="1"/><rect x="622.5" y="410.2527770996094" width="278" height="25" rx="7.092520236968994" fill="#9acd32" opacity="0.3" id="svg_7" class="" fill-opacity="1"/><rect x="622.5" y="478.2527770996094" width="278" height="25" rx="7.092520236968994" fill="#9acd32" opacity="0.3" id="svg_8" class="" fill-opacity="1"/><rect x="671" y="246.25277709960938" width="201" height="31" rx="7.092520236968994" fill="none" stroke="#3f3d56" stroke-miterlimit="10" id="svg_9" class=""/><rect x="632.5" y="332.2527770996094" width="278" height="25" rx="7.092520236968994" fill="none" stroke="#3f3d56" stroke-miterlimit="10" id="svg_10"/><rect x="632.5" y="400.2527770996094" width="278" height="25" rx="7.092520236968994" fill="none" stroke="#3f3d56" stroke-miterlimit="10" id="svg_11"/><rect x="632.5" y="468.2527770996094" width="278" height="25" rx="7.092520236968994" fill="none" stroke="#3f3d56" stroke-miterlimit="10" id="svg_12"/><circle cx="277.75" cy="126.25277709960938" r="15" fill="#9acd32" opacity="0.3" id="svg_13" class="" fill-opacity="1"/><circle cx="319.75" cy="126.25277709960938" r="15" fill="#9acd32" opacity="0.3" id="svg_14" class="" fill-opacity="1"/><circle cx="361.75" cy="126.25277709960938" r="15" fill="#9acd32" opacity="0.3" id="svg_15" class="" fill-opacity="1"/><circle cx="282.5" cy="120.25277709960938" r="15" fill="none" stroke="#3f3d56" stroke-miterlimit="10" id="svg_16"/><circle cx="324.5" cy="120.25277709960938" r="15" fill="none" stroke="#3f3d56" stroke-miterlimit="10" id="svg_17"/><circle cx="366.5" cy="120.25277709960938" r="15" fill="none" stroke="#3f3d56" stroke-miterlimit="10" id="svg_18"/><path d="M453.35400000000004,574.2527714501953 c-2.51135,-11.56848 -3.17724,-27.369320000000002 -2.33252,-38.36047 c0,0 -12.698360000000001,-55.78644 -22.68994,-60.99133 l-0.003050000000000001,0.003000000000000001 c-0.15300000000000002,0.19678000000000004 -5.00195,6.55383 -5.61706,26.22443 c-0.6245200000000001,19.98284 -7.6997100000000005,33.09655 -7.6997100000000005,33.09655 s2.28955,24.90766 0.98047,40.02777 z" fill="#9acd32" id="svg_19" class="" fill-opacity="1"/><path d="M546.97827,219.25277145019533 H316.52173 A23.77169,23.77169 0 0 0 292.75,243.0244414501953 V550.4811114501953 a23.77168,23.77168 0 0 0 23.77173,23.77166 h80.855 c-2.7002,-11.19934 -6.057,-28.69067 -2.65735,-40.85241 l-0.001590000000000001,-0.008000000000000004 l0.002200000000000001,0.00525 c0.15869000000000005,-0.56757 0.3272700000000001,-1.12738 0.51611,-1.6704700000000003 a63.49747,63.49747 0 0 0 2.29175,-24.35407 a50.6095,50.6095 0 0 0 0,-21.23175 c-2.4978000000000002,-11.65564 -4.24634,-23.10522 -4.24634,-23.10522 s-1.377,-15.40234 -0.1748,-24.84424 c0.02661000000000001,-0.20740000000000006 0.05762000000000002,-0.404 0.08667000000000004,-0.60541 c-0.4243200000000002,-0.09655000000000004 -0.6623500000000002,-0.15228000000000005 -0.6623500000000002,-0.15228000000000005 s3.53881,-16.02789 4.78759,-26.22748 c0.29493,-2.40783 0.6830000000000004,-5.46032 1.10315,-8.71478 a20.93993,20.93993 0 0 1 -3.3927,-0.8603500000000002 c-11.24035,-3.9549000000000003 -14.779,-39.75751 -14.779,-39.75751 V350.5296114501953 s-3.74683,-17.38092 9.36694,-25.08258 c12.62793,-7.41644 17.66968,-9.44617 18.02613,-9.58643 c0.09619000000000008,-0.06878000000000004 0.19018000000000004,-0.13128 0.2883300000000001,-0.20727 a11.06127,11.06127 0 0 0 3.28967,-4.23371 q0.02619000000000001,-0.42873 0.012330000000000004,-0.85211 c-0.21326000000000006,-4.06665 -3.04419,-7.76507 -5.73047,-10.99225 q-3.43653,-4.12857 -6.87341,-8.25726 a8.07194,8.07194 0 0 1 -1.77027,-2.8648700000000002 a6.604,6.604 0 0 1 -0.18700000000000006,-1.80389 q-0.0027500000000000016,-0.3369100000000002 0.004000000000000002,-0.6730000000000004 q0.056000000000000015,-3.07836 0.1672400000000001,-6.15545 c0.06445000000000002,-1.79224 0.5156200000000002,-4.05353 2.27075,-4.42182 c0.9128400000000002,-0.19159000000000007 2.12109,0.14246000000000006 2.6036400000000004,-0.6557600000000002 a1.56534,1.56534 0 0 0 0.11682000000000003,-1.06054 c-0.005860000000000003,0.02661000000000001 -0.007330000000000002,0.054440000000000016 -0.015000000000000006,0.08050000000000003 c-0.005860000000000003,-0.03339000000000002 -0.011590000000000007,-0.06695000000000002 -0.017820000000000006,-0.09985000000000004 a22.43656,22.43656 0 0 1 -0.65051,-4.38636 a5.84207,5.84207 0 0 1 0.2820000000000001,-1.96984 c1.01672,-2.97516 4.51782,-4.196 7.61133,-4.75727 c3.09375,-0.5613400000000002 6.56653,-1.04425 8.5083,-3.51709 a26.9506,26.9506 0 0 1 1.6888400000000006,-2.37384 a6.62979,6.62979 0 0 1 3.16589,-1.59674 a17.49792,17.49792 0 0 1 11.50623,1.02118 c1.4964600000000001,0.6828600000000002 2.99963,1.60248 4.64124,1.49841 c1.70507,-0.10800000000000003 3.16162,-1.3081 4.84509,-1.6000900000000002 c2.71911,-0.4715600000000001 5.31872,1.5656700000000003 6.65869,3.97827 a9.85108,9.85108 0 0 1 1.23279,5.02313 a6.912,6.912 0 0 1 -1.76416,4.74109 c-1.17017,1.24145 -2.91626,2.09418 -3.4021,3.72955 c-0.19800000000000006,0.6656500000000004 -0.15200000000000005,1.38257 -0.3269100000000002,2.05457 c-0.02185000000000001,0.08400000000000003 -0.05737000000000002,0.1624100000000001 -0.08606000000000005,0.24365 c0.03211000000000003,0.04169000000000002 0.06714000000000003,0.08112000000000005 0.09888000000000004,0.12300000000000003 a21.231,21.231 0 0 1 -10.33215,33.01928 c-0.007940000000000006,0.21058000000000004 -0.01624,0.4213300000000001 -0.015140000000000004,0.6330600000000002 a9.173,9.173 0 0 0 2.8396,7.0647 l18.54724,7.606 s11.16565,-1.3534000000000002 15.19495,15.30957 a28.82628,28.82628 0 0 1 0.6898200000000004,8.45746 c-0.14636000000000005,2.51251 0.19507000000000005,6.93573 3.05725,12.66 c4.57934,9.15881 3.53857,30.18237 -5.82837,32.26392 c-8.87231,1.97161 -12.32361,1.14331 -12.66382,1.05023 l-0.02014,0.3681000000000001 c0.14612,3.94489 1.55029,37.969 6.64758,42.086 c1.40955,1.13849 1.14026,1.90753 -0.016350000000000014,2.42578 l0.0028000000000000017,0.003360000000000002 s0.009400000000000004,0.21856000000000006 0.03113000000000001,0.6120000000000002 c0.15308000000000005,2.48846 0.9399400000000002,11.96472 4.35254,17.357 c3.956,6.24457 3.54077,42.25739 3.54077,42.25739 l2.70386,21.23181 s-1.66419,13.11371 0,15.4024 c0.94556,1.29785 2.09057,21.40351 2.9050000000000002,38.56964 h69.53027 A23.77168,23.77168 0 0 0 570.75,550.4811114501953 V243.0244414501953 A23.77169,23.77169 0 0 0 546.97827,219.25277145019533 z" fill="#9acd32" id="svg_20" class="" fill-opacity="1"/><rect x="267.5" y="192.25277709960938" width="278" height="355" rx="23.771650314331055" fill="none" stroke="#3f3d56" stroke-miterlimit="10" id="svg_21" class="" transform="matrix(1,0,0,1,0,0) "/><path d="M100.82418999999999,321.6306114501953 S91.5,318.8736114501953 89.5,321.8736114501953 s2.72669,24.747700000000002 2.72669,24.747700000000002 l20.54589,1.24859 l-7.17022,-18.10653 z" fill="#2f2e41" id="svg_22"/><path d="M28.94417,500.2207014501953 s18.69466,41.04232 4.29762,39.753 s-19.98395,-39.753 -19.98395,-39.753 z" fill="#a0616a" id="svg_23"/><path d="M151.21128,495.94488145019534 s-8.20129,44.34751 5.45523,39.61078 s9.76437,-43.40874 9.76437,-43.40874 z" fill="#a0616a" id="svg_24"/><path d="M96.84664000000001,311.3400814501953 s-0.21488000000000002,20.6286 7.73573,21.703 s-4.51251,12.03335 -4.51251,12.03335 l-14.18216,2.79346 L65.47399999999999,346.3657314501953 l-9.025,-11.60359 s15.90121,-7.52084 9.025,-30.9429 z" fill="#a0616a" id="svg_25"/><path d="M96.84664000000001,311.3400814501953 s-0.21488000000000002,20.6286 7.73573,21.703 s-4.51251,12.03335 -4.51251,12.03335 l-14.18216,2.79346 L65.47399999999999,346.3657314501953 l-9.025,-11.60359 s15.90121,-7.52084 9.025,-30.9429 z" opacity="0.1" id="svg_26"/><path d="M133.37645,485.82366145019535 s10.09942,21.703 2.14881,89.82036 c0,0 2.3637,24.0667 0.42977000000000004,28.5792 s-17.83515,65.75367 -17.83515,65.75367 s-20.413710000000002,4.5125 -23.20717,-9.025 c0,0 2.79346,-19.33931 2.57857,-22.34765 s4.51251,-35.88516 4.51251,-35.88516 l-9.66966,-63.60485 l-7.306,57.37329 s0,16.54586 -2.36369,20.19884 s0,77.14236 0,77.14236 s6.66132,11.17383 -3.4381,11.38871 s-19.12443,-0.21488000000000002 -19.984,-7.306 s-1.28929,-14.18216 -3.4381,-18.47979 s-4.94227,-53.50543 -4.29762,-70.69593 s-14.18216,-105.50669 -9.45478,-114.74659 S133.37645,485.82366145019535 133.37645,485.82366145019535 z" fill="#2f2e41" id="svg_27"/><circle cx="85.88770294189453" cy="293.2900695800781" r="25.785749435424805" fill="#a0616a" id="svg_28"/><path d="M60.10194999999999,335.1919014501953 s15.68633,11.60359 38.46374,2.3637 c0,0 7.52084,-3.653 6.8762,-9.2399 s15.68633,44.91018 15.68633,44.91018 l16.54586,87.88643 l-0.85953,35.88517 s-7.306,-3.653 -30.08337,4.51251 s-59.95187,-9.2399 -59.95187,-9.2399 l1.28929,-92.18405 l1.28928,-53.72031 l3.4381,-11.81847 S54.514999999999986,331.3240414501953 60.10194999999999,335.1919014501953 z" fill="#f2f2f2" id="svg_29"/><path d="M97.56324000000001,320.76684145019533 s3.79591,-0.6166200000000002 7.4488900000000005,5.18517 s12.24823,9.45477 12.24823,9.45477 s20.84348,1.28929 23.85182,12.46312 s10.52918,26.43039 14.18216,54.57983 s10.95894,73.05963 12.03335,76.71261 s-1.50417,14.8268 1.50417,18.2649 s-21.27325,3.4381 -21.27325,3.4381 s-2.14881,-17.620260000000002 -3.653,-17.620260000000002 s-1.0744,11.81847 0.42977000000000004,20.41372 s-10.95895,0 -10.95895,0 s-9.66965,-39.32327 -18.90955,-74.77867 S99.85499999999999,373.8705314501953 101.57400000000001,365.9199214501953 s6.44644,-30.728 3.00834,-32.87683 S97.56324000000001,320.76684145019533 97.56324000000001,320.76684145019533 z" fill="#2f2e41" id="svg_30"/><path d="M66.57551000000001,320.7478914501953 s-5.614,3.05531 -19.7962,13.15473 s-23.85182,17.83514 -23.85182,17.83514 s-5.58691,4.29762 -9.025,29.86849 S2.728650000000002,473.36054145019534 5.736999999999995,481.7409114501953 s4.08275,13.32264 3.00834,18.26491 s22.56253,4.72739 22.99229,3.653 s-0.6446400000000002,-20.6286 0.42977000000000004,-21.05836 s6.87619,11.60359 7.9506,21.703 s13.53752,18.05 16.331,18.05 s17.1905,-58.23282 17.40538,-97.98585 s-4.72739,-73.2745 -8.38037,-78.00189 S66.57551000000001,320.7478914501953 66.57551000000001,320.7478914501953 z" fill="#2f2e41" id="svg_31"/><path d="M104.36748,671.9108214501953 s1.7190500000000002,-4.72739 7.73573,-3.22322 s10.09942,-3.8678600000000003 10.09942,-3.8678600000000003 s3.22322,-0.42977000000000004 1.0744,3.653 s-3.8678600000000003,6.8762 -3.8678600000000003,6.8762 s12.89288,29.43873 4.51251,36.52981 s-18.05,2.79346 -18.05,2.79346 s-9.45477,-6.66132 -9.025,-24.28159 c0,0 -0.42976000000000003,-5.58691 -5.58691,-14.61192 s-9.025,-22.77741 -2.79346,-25.356 s7.83546,-2.67436 7.83546,-2.67436 s-2.916,13.33721 4.61624,17.99776 z" fill="#3f3d56" id="svg_32"/><path d="M64.39957000000001,705.2174114501953 s-5.15715,-9.66966 3.4381,-10.74406 s17.83515,-1.7190500000000002 17.40538,2.79345 s-1.50417,11.38871 -1.50417,11.38871 l1.50417,4.94227 s0.42977000000000004,12.24823 1.9339300000000001,13.7524 s9.66966,14.397 -7.735720000000001,14.397 s-22.56253,-1.9339300000000001 -21.05836,-6.01667 s1.9339300000000001,-24.28158 1.9339300000000001,-24.28158 z" fill="#3f3d56" id="svg_33"/><path d="M77.72220999999999,272.6614614501953 s12.03335,3.22322 18.26491,4.51251 s5.58691,-2.3637 5.58691,-2.3637 s8.16549,1.07441 7.735720000000001,0.21488000000000002 s3.4381,-5.372 -1.0744,-10.52918 s-3.22322,-9.025 -3.22322,-9.025 h-3.8678600000000003 l-1.07441,-1.50417 h-6.01668 s-4.5125,-1.7190500000000002 -16.331,0 s-27.93456,2.14881 -29.22385,9.2399 s-7.95061,15.90121 -5.58691,19.98395 s15.90121,20.84348 17.1905,27.93456 s7.30933,8.66659 7.09277,4.22585 s-6.23325,-19.91218 -1.0761,-20.556820000000002 S80.08590000000001,281.04183145019533 77.72220999999999,272.6614614501953 z" fill="#2f2e41" id="svg_34"/><path d="M934.88065,7.457381450195314 a22.982,22.982 0 0 0 -19.80994,13.851 c-4.9535,11.97382 1.42449,26.03885 10.999,34.77028 s21.87358,13.72225 33.04831,20.28234 c15.00952,8.81128 28.4968,21.04282 36.00691,36.74386 s8.30888,35.15009 -0.51891,50.14991 c-8.1937,13.9224 -23.09255,22.2549 -37.30219,29.9397 " fill="none" stroke="#3f3d56" stroke-miterlimit="10" id="svg_35"/><ellipse cx="947.5" cy="8.5" rx="17.5" ry="8.5" fill="#9acd32" id="svg_36" class="" fill-opacity="1"/><ellipse cx="962.75" cy="64.5" rx="17.5" ry="8.5" fill="#9acd32" id="svg_37" class="" fill-opacity="1"/><ellipse cx="930.75" cy="73.5" rx="17.5" ry="8.5" fill="#9acd32" id="svg_38" class="" fill-opacity="1"/><ellipse cx="979.5" cy="120.5" rx="17.5" ry="8.5" fill="#9acd32" id="svg_39" class="" fill-opacity="1"/><ellipse cx="1014.5" cy="120.5" rx="17.5" ry="8.5" fill="#9acd32" id="svg_40" class="" fill-opacity="1"/></g></svg>